HIERARCHY
ROOT Hips
{
	OFFSET 0.000000 0.000000 0.000000
	CHANNELS 6 Xposition Yposition Zposition Xrotation Yrotation Zrotation
	JOINT LeftUpLeg_virtual
	{
		OFFSET 0.000000 0.000000 0.000000
		CHANNELS 3 Xrotation Yrotation Zrotation
		JOINT LeftUpLeg
		{
			OFFSET 11.394100 -6.187798 -0.413800
			CHANNELS 3 Xrotation Yrotation Zrotation
			JOINT LeftLeg
			{
				OFFSET 0.430247 -32.302673 3.732800
				CHANNELS 3 Xrotation Yrotation Zrotation
				JOINT LeftFoot
				{
					OFFSET -0.430247 -48.264931 -6.423300
					CHANNELS 3 Xrotation Yrotation Zrotation
					JOINT LeftToeBase
					{
						OFFSET 4.230900 -16.068199 23.438400
						CHANNELS 3 Xrotation Yrotation Zrotation
						JOINT LeftToe_End
						{
							OFFSET 4.510700 0.695400 19.974600
							CHANNELS 3 Xrotation Yrotation Zrotation
							End Site
							{
								OFFSET 0 0 0
							}
						}
					}
				}
			}
		}
	}
	JOINT RightUpLeg_virtual
	{
		OFFSET 0.000000 0.000000 0.000000
		CHANNELS 3 Xrotation Yrotation Zrotation
		JOINT RightUpLeg
		{
			OFFSET -11.333700 -6.187798 -0.413800
			CHANNELS 3 Xrotation Yrotation Zrotation
			JOINT RightLeg
			{
				OFFSET -0.430392 -32.302628 3.733000
				CHANNELS 3 Xrotation Yrotation Zrotation
				JOINT RightFoot
				{
					OFFSET 0.430392 -48.264973 -6.423500
					CHANNELS 3 Xrotation Yrotation Zrotation
					JOINT RightToeBase
					{
						OFFSET -4.230900 -16.068199 23.438400
						CHANNELS 3 Xrotation Yrotation Zrotation
						JOINT RightToe_End
						{
							OFFSET -4.510700 0.695400 19.974600
							CHANNELS 3 Xrotation Yrotation Zrotation
							End Site
							{
								OFFSET 0 0 0
							}
						}
					}
				}
			}
		}
	}
	JOINT Spine_virtual
	{
		OFFSET 0.000000 0.000000 0.000000
		CHANNELS 3 Xrotation Yrotation Zrotation
		JOINT Spine
		{
			OFFSET -0.002400 12.777504 0.315300
			CHANNELS 3 Xrotation Yrotation Zrotation
			JOINT Spine1
			{
				OFFSET -0.002067 5.816869 0.032633
				CHANNELS 3 Xrotation Yrotation Zrotation
				JOINT Spine1_split
				{
					OFFSET -0.002067 5.816869 0.032633
					CHANNELS 3 Xrotation Yrotation Zrotation
					JOINT Spine2
					{
						OFFSET -0.002067 5.816869 0.032633
						CHANNELS 3 Xrotation Yrotation Zrotation
						JOINT Neck_virtual
						{
							OFFSET 0.000000 0.000000 0.000000
							CHANNELS 3 Xrotation Yrotation Zrotation
							JOINT Neck
							{
								OFFSET -0.003700 21.199493 -0.826900
								CHANNELS 3 Xrotation Yrotation Zrotation
								JOINT Head
								{
									OFFSET 0.000000 20.442200 4.834800
									CHANNELS 3 Xrotation Yrotation Zrotation
									JOINT HeadTop_End
									{
										OFFSET 0.000000 34.668396 4.968400
										CHANNELS 3 Xrotation Yrotation Zrotation
										End Site
										{
											OFFSET 0 0 0
										}
									}
								}
							}
						}
						JOINT LeftShoulder_virtual
						{
							OFFSET 0.000000 0.000000 0.000000
							CHANNELS 3 Xrotation Yrotation Zrotation
							JOINT LeftShoulder
							{
								OFFSET 3.288150 8.794197 -1.372250
								CHANNELS 3 Xrotation Yrotation Zrotation
								JOINT LeftShoulder_split
								{
									OFFSET 3.288150 8.794197 -1.372250
									CHANNELS 3 Xrotation Yrotation Zrotation
									JOINT LeftArm
									{
										OFFSET 11.953299 -2.279007 -0.146200
										CHANNELS 3 Xrotation Yrotation Zrotation
										JOINT LeftForeArm
										{
											OFFSET 18.448900 0.000000 0.000000
											CHANNELS 3 Xrotation Yrotation Zrotation
											JOINT LeftHand
											{
												OFFSET 29.527798 0.000000 0.000000
												CHANNELS 3 Xrotation Yrotation Zrotation
												End Site
												{
													OFFSET 0 0 0
												}
											}
										}
									}
								}
							}
						}
						JOINT RightShoulder_virtual
						{
							OFFSET 0.000000 0.000000 0.000000
							CHANNELS 3 Xrotation Yrotation Zrotation
							JOINT RightShoulder
							{
								OFFSET -3.249400 8.794197 -1.372250
								CHANNELS 3 Xrotation Yrotation Zrotation
								JOINT RightShoulder_split
								{
									OFFSET -3.249400 8.794197 -1.372250
									CHANNELS 3 Xrotation Yrotation Zrotation
									JOINT RightArm
									{
										OFFSET -11.953299 -2.279007 -0.146200
										CHANNELS 3 Xrotation Yrotation Zrotation
										JOINT RightForeArm
										{
											OFFSET -18.448900 0.000000 0.000000
											CHANNELS 3 Xrotation Yrotation Zrotation
											JOINT RightHand
											{
												OFFSET -29.527802 0.000000 0.000000
												CHANNELS 3 Xrotation Yrotation Zrotation
												End Site
												{
													OFFSET 0 0 0
												}
											}
										}
									}
								}
							}
						}
					}
				}
			}
		}
	}
}
MOTION
Frames: 7
Frame Time: 0.03333333
5.112191 85.470177 2.156948 0.000000 0.000000 0.000000 -9.518101 -42.647766 13.552247 -28.447852 32.923977 1.337374 54.017692 6.591851 5.673535 -18.359361 18.079888 -8.340842 -0.557043 -0.192836 -1.180855 0.000000 0.000000 0.000000 -9.831437 -42.485020 14.332262 -41.278593 11.208603 -36.191414 62.720008 0.995633 -9.462667 -17.411556 -4.223471 20.843144 -2.095947 2.002312 2.330611 0.000000 0.000000 0.000000 -4.806334 -44.247745 15.304553 1.863059 -3.629770 8.139402 -0.821451 -1.430387 5.212684 1.928693 -1.876687 0.696561 0.000000 0.000000 0.000000 -0.923577 -1.755466 4.673783 -10.349290 6.302679 7.083116 -16.744584 39.436710 -4.264483 0.000000 0.000000 0.000000 -1.314603 -1.652323 4.656752 -0.809110 1.264199 11.490008 -0.059918 1.710451 1.005827 -36.022250 -30.193480 -44.701307 -7.361857 -80.954366 -4.764908 0.000000 0.000000 0.000000 -1.398312 -1.652888 4.688658 -0.653963 -6.493763 6.855912 2.015668 1.396392 1.120480 137.148792 78.130930 -101.403775 -0.881485 27.376392 0.698976 0.000000 0.000000 0.000000 
5.863328 86.041412 2.346905 0.000000 0.000000 0.000000 -8.386393 -41.621595 14.450520 -28.770335 31.992039 -0.131713 53.211302 6.262278 5.169766 -18.343728 17.872049 -6.993368 -0.350492 -0.212102 -1.035194 0.000000 0.000000 0.000000 -8.576474 -41.384499 15.263250 -42.361923 11.019801 -36.227518 62.227518 0.912394 -9.458837 -16.408667 -4.292150 21.106092 -3.043791 2.013969 2.441865 0.000000 0.000000 0.000000 -3.532239 -43.372842 16.186182 1.927085 -3.290405 7.992212 -0.762147 -1.218943 5.194746 1.884643 -1.503473 0.472767 0.000000 0.000000 0.000000 -0.811303 -1.515033 4.674797 -9.956188 6.455523 5.980070 -15.591223 38.338815 -5.394054 0.000000 0.000000 0.000000 -1.314766 -1.388711 4.632006 -0.876923 1.640064 11.046882 0.044248 1.554960 0.919435 -35.648666 -30.409590 -44.200343 -9.648954 -84.176235 -6.997539 0.000000 0.000000 0.000000 -1.228280 -1.421318 4.700051 -0.602855 -6.992835 7.445314 1.952417 1.712994 0.634893 138.339116 77.770392 -102.836551 -0.740975 26.392348 0.650478 0.000000 0.000000 0.000000 
6.617314 86.843300 2.436039 0.000000 0.000000 0.000000 -7.213730 -40.459998 15.271045 -28.843786 31.060009 -1.615530 51.732082 5.997684 4.694106 -17.956339 17.403322 -5.801532 -0.258540 -0.227982 -0.903285 0.000000 0.000000 0.000000 -7.316599 -40.256268 16.125569 -43.583164 10.493404 -36.006172 61.323078 0.850137 -9.450605 -15.311235 -4.035088 20.732691 -3.573138 2.022435 2.624115 0.000000 0.000000 0.000000 -2.298336 -42.314490 16.909226 2.028044 -2.965199 7.876052 -0.667058 -0.987037 5.200390 1.685581 -1.154428 0.316772 0.000000 0.000000 0.000000 -0.611757 -1.257094 4.681194 -9.752340 6.488536 4.907715 -14.744184 36.797521 -6.276380 0.000000 0.000000 0.000000 -1.191389 -1.102844 4.642176 -0.935364 1.984437 10.454800 0.145060 1.569598 0.790088 -34.340012 -30.057613 -43.529844 -18.689850 -86.902566 -15.967073 0.000000 0.000000 0.000000 -0.980475 -1.172736 4.703433 -0.506785 -7.389963 7.634346 1.893509 2.107604 0.356846 138.910830 77.121633 -104.116617 -0.692667 25.035466 0.554826 0.000000 0.000000 0.000000 
7.340359 87.794937 2.390026 0.000000 0.000000 0.000000 -6.069187 -39.225752 15.923514 -28.822213 30.209722 -2.893828 49.801863 5.854158 4.250965 -17.234857 16.750969 -4.761709 -0.220609 -0.231763 -0.794874 0.000000 0.000000 0.000000 -6.133332 -39.166706 16.835914 -44.996200 9.603079 -35.639224 60.097776 0.815341 -9.368587 -14.003680 -3.448277 19.758042 -3.549253 2.063994 2.795768 0.000000 0.000000 0.000000 -1.134253 -41.189029 17.419832 2.200758 -2.612132 7.768978 -0.537588 -0.731662 5.193859 1.509225 -0.974387 0.290334 0.000000 0.000000 0.000000 -0.318611 -0.967019 4.646245 -9.702453 6.406903 4.054159 -14.190071 35.056397 -6.948935 0.000000 0.000000 0.000000 -0.942915 -0.804632 4.651448 -0.988981 2.243070 9.837653 0.332255 1.719150 0.723682 -32.597734 -29.365548 -42.966787 -50.261774 -88.516151 -47.488284 0.000000 0.000000 0.000000 -0.672393 -0.901851 4.670488 -0.384908 -7.646309 7.500972 1.843713 2.518213 0.288513 139.397126 76.131228 -105.688838 -0.725031 23.306666 0.424660 0.000000 0.000000 0.000000 
7.978876 88.749146 2.259926 0.000000 0.000000 0.000000 -4.991399 -37.983044 16.359526 -28.788281 29.469022 -3.835897 47.768536 5.821655 3.883700 -16.342387 15.996925 -3.842464 -0.127647 -0.224279 -0.732151 0.000000 0.000000 0.000000 -5.086291 -38.094427 17.315008 -46.533375 8.427547 -35.248520 58.747987 0.960079 -9.263219 -12.349727 -2.520403 18.609089 -3.387857 2.134442 2.831536 0.000000 0.000000 0.000000 -0.159386 -40.058800 17.684985 2.466498 -2.199316 7.640965 -0.358997 -0.454474 5.146064 1.392591 -0.963341 0.443367 0.000000 0.000000 0.000000 0.056307 -0.660469 4.558688 -9.725318 6.230843 3.586889 -13.818618 33.311792 -7.530015 0.000000 0.000000 0.000000 -0.606581 -0.500326 4.635104 -1.045923 2.320809 9.269838 0.493726 1.945942 0.647755 -31.077975 -28.546579 -42.755150 -92.014751 -88.736226 -89.277396 0.000000 0.000000 0.000000 -0.325950 -0.614807 4.590034 -0.271829 -7.778558 7.164575 1.923670 3.035118 0.393274 140.089284 74.860854 -107.725368 -0.825579 21.379552 0.286395 0.000000 0.000000 0.000000 
8.504818 89.592636 2.036686 0.000000 0.000000 0.000000 -4.066819 -36.735971 16.533982 -28.788551 28.831543 -4.411097 45.943063 5.854112 3.647593 -15.430719 15.208097 -3.072728 0.030211 -0.202212 -0.701611 0.000000 0.000000 0.000000 -4.247988 -37.018529 17.481927 -48.013286 7.047053 -34.887923 57.511675 1.309987 -9.175353 -10.352309 -1.354985 17.562513 -3.462377 2.204690 2.658057 0.000000 0.000000 0.000000 0.612636 -38.989445 17.709221 2.784747 -1.717770 7.475974 -0.132215 -0.176273 5.049768 1.465084 -1.364825 0.581591 0.000000 0.000000 0.000000 0.462200 -0.360686 4.425036 -9.691181 5.986323 3.514986 -13.469852 31.689554 -8.108051 0.000000 0.000000 0.000000 -0.231202 -0.221949 4.591031 -1.125740 2.259465 8.869693 0.639542 2.284679 0.628853 -30.345441 -27.869890 -42.983801 -92.625548 -88.752434 -90.037097 0.000000 0.000000 0.000000 0.020242 -0.340382 4.471998 -0.173412 -7.828681 6.729218 2.099121 3.442686 0.582390 141.492655 73.595227 -110.637938 -0.979078 19.532533 0.168026 0.000000 0.000000 0.000000 
8.887968 90.235001 1.787231 0.000000 0.000000 0.000000 -3.375208 -35.445717 16.412386 -28.837035 28.259993 -4.671495 44.472420 5.847277 3.578433 -14.583893 14.392085 -2.527863 0.099516 -0.163644 -0.628361 0.000000 0.000000 0.000000 -3.629715 -35.901872 17.309390 -49.225030 5.509140 -34.532210 56.479107 1.783769 -9.144367 -8.374931 -0.180305 16.600766 -3.505369 2.251684 2.330196 0.000000 0.000000 0.000000 1.192506 -37.955259 17.497847 3.095391 -1.187906 7.275632 0.122928 0.087217 4.908950 1.590322 -1.800432 0.704917 0.000000 0.000000 0.000000 0.844422 -0.084495 4.272823 -9.470964 5.727078 3.752975 -13.044136 30.266860 -8.744044 0.000000 0.000000 0.000000 0.129063 0.010361 4.521703 -1.214025 2.054833 8.693671 0.796161 2.782274 0.722163 -30.624984 -27.556641 -43.566546 -49.196043 -88.527134 -46.862570 0.000000 0.000000 0.000000 0.344274 -0.094786 4.345009 -0.095634 -7.835704 6.250123 2.340360 3.663468 0.713534 143.491373 72.643406 -114.325509 -1.179249 18.011863 0.077861 0.000000 0.000000 0.000000 
